<svg width="26" height="33" viewBox="0 0 26 33" fill="none" xmlns="http://www.w3.org/2000/svg">
<path d="M13.2755 1.18129C11.9394 0.987883 16.1566 0.790268 17.3128 1.49595C23.295 5.14733 27.4932 14.8682 23.3169 21.3722C21.9186 23.5498 18.8485 25.1996 16.3811 23.7322C15.2967 23.0872 13.6403 19.6737 15.6306 19.1695C19.5662 18.1726 25.0922 24.8435 20.2113 26.8526C13.9524 29.4289 7.72735 25.4314 1.62961 24.781C0.739904 24.6861 0.77914 24.23 1.83664 24.781C3.45041 25.6219 4.53574 26.8168 5.82214 28.085C6.602 28.8538 12.4347 34.054 9.00536 31.1005C7.88723 30.1375 1.06008 23.4812 1.68137 23.3913C3.36317 23.1478 4.96509 23.6614 6.23622 22.1588C6.85466 21.4278 7.76656 19.035 6.28797 20.5331" stroke="black" stroke-linecap="round"/>
</svg>
