<svg width="313" height="89" viewBox="0 0 313 89" fill="none" xmlns="http://www.w3.org/2000/svg">
<path fill-rule="evenodd" clip-rule="evenodd" d="M10.1522 0.207302C9.55034 0.525805 9.07101 1.02234 8.83114 1.57612C8.70016 1.87833 6.99711 13.4582 4.46036 31.2954C2.17459 47.3687 0.235166 60.7317 0.150523 60.9909C-0.0885403 61.7239 -0.0373795 62.8657 0.265166 63.5497C0.80999 64.7809 2.34321 65.7504 4.46023 66.2022C5.35729 66.3936 6.19501 66.4441 8.41114 66.4399C11.9619 66.4333 14.6944 66.0903 19.1255 65.0948C27.1569 63.2906 36.8476 59.6172 43.3457 55.9137C43.9235 55.5844 44.4097 55.3346 44.426 55.3585C44.4425 55.3824 43.4135 60.3108 42.1394 66.3105C40.8654 72.3102 39.8218 77.4064 39.8203 77.6353C39.8135 78.666 40.1714 79.2704 43.3392 83.5767C45.0713 85.9316 46.6298 87.9909 46.8026 88.1529C47.3513 88.6676 48.2579 88.9968 49.1359 89C49.78 89.0023 55.1541 87.6546 74.9173 82.5347C88.6493 78.9772 100.181 75.9693 100.542 75.8504C101.356 75.5832 102.239 74.7272 102.546 73.9096C102.673 73.5702 103.978 64.8186 105.578 53.5839C107.123 42.7326 108.542 32.824 108.732 31.5648C109.116 29.0165 109.095 28.259 108.621 27.4119C108.193 26.6483 102.139 18.4278 101.78 18.1222C101.178 17.6111 100.168 17.2248 99.4304 17.2234C98.8871 17.2223 92.8232 18.857 74.9394 23.8254C49.0489 31.018 50.3738 30.5996 49.6693 31.8081C49.4844 32.1256 49.1596 33.1475 48.939 34.1063C48.7205 35.0561 48.5139 35.861 48.4801 35.8951C48.4462 35.9291 40.4234 27.9691 30.6518 18.2063C20.8802 8.44339 12.6922 0.352076 12.4562 0.225348C11.9111 -0.0671623 10.689 -0.076724 10.1522 0.207302ZM13.5266 3.59205C14.0295 3.86234 46.2229 35.9582 46.5042 36.4696C46.97 37.3168 46.5453 38.8278 45.6481 39.516C45.2325 39.8348 44.9435 39.9017 43.0018 40.1296C31.6273 41.4643 17.0936 46.7951 7.92002 52.9974C6.2439 54.1306 5.91282 54.3033 5.30974 54.3592C4.08 54.4731 3.12094 53.673 3.12094 52.5333C3.12094 52.2375 4.62603 41.4305 6.46542 28.5175C9.73476 5.56717 9.81833 5.02726 10.1838 4.49813C10.8938 3.46976 12.4929 3.03638 13.5266 3.59205ZM96.9383 20.121C98.0903 20.6797 99.0142 22.0611 99.0142 23.225C99.0142 23.4634 98.6198 26.1342 98.1376 29.1603C97.6555 32.1864 96.3311 40.5711 95.1944 47.7929C94.0576 55.0148 93.0617 61.1567 92.9812 61.4418C92.7947 62.1022 91.8724 63.1174 91.1793 63.4254C90.8847 63.5563 83.1101 65.7544 73.9025 68.31C64.6949 70.8656 54.7211 73.6348 51.7388 74.4639C46.9806 75.7865 46.2247 75.9629 45.5684 75.903C44.0986 75.769 42.8304 74.718 42.4155 73.2902C42.196 72.5347 42.198 72.453 42.4682 71.0914C42.7911 69.4654 45.6333 55.9952 45.8581 55.0257C45.9974 54.425 46.0791 54.332 47.0309 53.6899C52.4367 50.0436 55.2587 46.8529 55.2716 44.3732C55.2791 42.904 55.1627 42.726 52.2678 39.7799L49.6213 37.0864L49.9209 35.6723C50.0857 34.8946 50.2937 34.0358 50.3831 33.7639C50.6138 33.0622 51.2263 32.2606 51.8079 31.899C52.1277 31.7004 59.8875 29.4772 73.4838 25.689C92.7444 20.3226 94.7402 19.7919 95.532 19.8249C96.0498 19.8464 96.6197 19.9664 96.9383 20.121ZM81.2686 31.8403C79.4271 32.3194 75.2083 33.4044 71.8935 34.2516C61.4477 36.9215 59.6816 37.3957 59.132 37.6777C58.5028 38.0004 57.6944 38.9031 57.5033 39.4964C57.1541 40.5804 52.9426 61.2176 52.9426 61.8449C52.9426 63.5547 54.3952 65.0719 56.2129 65.2606C56.8244 65.324 58.4193 64.9091 69.99 61.6771C77.1871 59.6667 83.2234 57.9653 83.4039 57.8962C83.9028 57.7055 84.8052 56.8298 85.0985 56.2516C85.289 55.8763 85.7961 52.9232 86.9639 45.3863C87.846 39.6938 88.5677 34.7367 88.5677 34.3707C88.5677 33.4525 88.0406 32.4272 87.2606 31.8283C86.6407 31.3524 85.5816 30.9544 84.9607 30.9641C84.7716 30.9671 83.1101 31.3614 81.2686 31.8403ZM83.1436 43.7448C84.3123 44.2567 85.1685 45.3613 85.3051 46.5335C85.3805 47.1808 84.4388 53.8051 84.1369 54.7509C83.9524 55.3288 83.0567 56.3269 82.4723 56.6058C82.2097 56.7311 79.0591 57.656 75.4711 58.6612C68.3227 60.6636 67.9961 60.7208 66.7657 60.1846C65.562 59.6601 64.5944 58.2483 64.5944 57.0166C64.5944 56.3941 66.038 49.5649 66.2969 48.963C66.579 48.3067 67.3796 47.5008 68.0348 47.2134C68.5046 47.0074 80.4394 43.5908 81.2016 43.4442C81.697 43.3488 82.5362 43.4788 83.1436 43.7448Z" fill="#84648B"/>
<path fill-rule="evenodd" clip-rule="evenodd" d="M199.921 12.1954C199.645 12.2868 198.804 12.4959 198.05 12.6603C196.212 13.0615 193.161 15.7804 192.325 17.7629C191.897 18.776 191.647 21.3523 191.647 24.7422C191.647 29.3357 191.811 30.4327 192.776 32.3025C194.207 35.0755 195.71 36.1457 199.169 36.8524C205.229 38.0904 210.395 35.5239 211.632 30.6592C212.35 27.8345 212.374 21.2575 211.675 18.7665C210.873 15.9056 208.519 13.575 205.55 12.702C203.16 11.9988 201.083 11.8121 199.921 12.1954ZM149.2 14.2842C147.764 17.6889 141 35.9103 141 36.3751C141 36.6289 142.044 36.7679 143.32 36.685C145.56 36.5385 145.669 36.4571 146.518 34.2988L147.396 32.0641L157.958 31.783L158.796 34.2824C159.632 36.7749 159.641 36.7818 161.821 36.7818C163.024 36.7818 164.105 36.614 164.224 36.4094C164.457 36.0086 156.537 14.8344 155.597 13.3446C155.174 12.6732 154.398 12.4482 152.503 12.4482C150.062 12.4482 149.949 12.5113 149.2 14.2842ZM167.912 12.7795C167.728 12.9612 167.577 18.4363 167.577 24.9463V36.7818H172.065L172.341 21.1676L182.7 36.835L186.883 36.5335V12.6965H182.37L181.869 28.0158L177.918 21.846C172.124 12.7983 171.825 12.4482 169.892 12.4482C168.986 12.4482 168.095 12.5972 167.912 12.7795ZM214.558 12.769C213.995 13.3262 214.165 15.6786 214.815 16.3217C215.155 16.6589 216.785 16.9177 218.565 16.9177H221.714L221.985 36.5335H226.499L226.77 16.9177H230.26C233.535 16.9177 233.769 16.8432 234.056 15.7154C234.824 12.6826 234.904 12.7089 224.455 12.5619C219.201 12.4879 214.747 12.5813 214.558 12.769ZM237.781 36.7818H242.294V26.8497H252.789L253.076 36.5335H257.589V12.6965H253.076L252.788 22.4146L242.545 22.132L242.258 12.4482H237.781V36.7818ZM263.356 36.7818H271.847C279.897 36.7818 280.354 36.7302 280.656 35.7886C280.831 35.2424 280.831 34.3485 280.656 33.8022C280.36 32.879 279.897 32.809 274.103 32.809H267.869V26.3531H279.463L279.152 22.6286L267.869 22.3475V16.4211H280.466L280.155 12.6965L263.356 12.4244V36.7818ZM285.144 13.0799C285.009 13.427 284.959 18.8465 285.034 25.1226L285.169 36.5335L289.933 36.8365V27.843H294.838L299.711 36.5335L302.093 36.685C303.797 36.7933 304.475 36.6517 304.473 36.1884C304.471 35.8318 303.374 33.6443 302.034 31.3266L299.598 27.1124L301.622 25.3336C303.488 23.6938 303.661 23.3248 303.837 20.6089C304.078 16.9157 302.9 14.8051 299.826 13.4236C298.109 12.6518 296.533 12.4681 291.547 12.4591C287.018 12.4512 285.324 12.6156 285.144 13.0799ZM203.967 16.6515C206.574 17.7301 207.352 19.9797 207.099 25.7056C206.926 29.6342 206.733 30.466 205.756 31.496C204.343 32.9853 202.361 33.4129 199.94 32.7509C197.385 32.0522 196.662 30.1646 196.662 24.2014C196.662 20.1863 196.811 19.3461 197.734 18.185C199.516 15.9418 201.232 15.5197 203.967 16.6515ZM297.956 17.4143C299.275 18.7203 299.282 21.4407 297.969 22.6172C297.294 23.2225 295.86 23.5836 293.456 23.7539L289.933 24.0037V16.4211H293.443C296.285 16.4211 297.144 16.6103 297.956 17.4143ZM156.539 27.7188C156.543 27.7873 154.853 27.843 152.784 27.843C150.716 27.843 149.023 27.6349 149.023 27.3801C149.023 27.0082 150.647 22.3788 152.343 17.9109C152.505 17.4858 153.465 19.4042 154.579 22.3803C155.654 25.2482 156.536 27.6503 156.539 27.7188ZM308.236 36.5335L313 36.8365V31.8158H307.93L308.236 36.5335ZM143.231 54.2981C143.097 54.6452 143.047 60.0646 143.122 66.3407L143.257 77.7517H150.277C158.541 77.7517 160.06 77.2024 161.936 73.538C162.897 71.6593 163.064 70.5465 163.064 66.0085C163.064 60.3527 162.657 58.6036 160.899 56.7046C158.703 54.3313 156.313 53.6892 149.635 53.6773C145.106 53.6694 143.411 53.8337 143.231 54.2981ZM168.079 78H176.57C184.62 78 185.077 77.9484 185.379 77.0068C185.554 76.4605 185.554 75.5666 185.379 75.0204C185.083 74.0972 184.62 74.0272 178.826 74.0272H172.592V67.5713H184.186L183.875 63.8468L172.592 63.5657V57.6392H185.189L184.878 53.9147L168.079 53.6425V78ZM188.044 53.9241C187.875 54.0915 189.538 59.5775 191.741 66.1143L195.745 78H198.398C199.923 78 201.263 77.7358 201.547 77.3792C202.292 76.4446 209.643 54.2722 209.315 53.9475C208.772 53.4096 205.306 53.6704 204.798 54.2871C204.516 54.6288 203.094 58.6508 201.635 63.226C200.178 67.8012 198.856 71.5441 198.699 71.5441C198.541 71.5441 197.059 67.5778 195.406 62.7294L192.399 53.9147L190.376 53.7672C189.262 53.6862 188.213 53.7568 188.044 53.9241ZM156.85 59.2934C157.938 60.5458 158.049 61.1219 158.043 65.4885C158.039 68.1364 157.898 70.8146 157.728 71.4398C157.271 73.1288 155.041 74.0272 151.305 74.0272H148.02V57.5305L151.835 57.7217C155.268 57.893 155.771 58.0509 156.85 59.2934Z" fill="#84648B"/>
</svg>