<svg width="46" height="45" viewBox="0 0 46 45" fill="none" xmlns="http://www.w3.org/2000/svg">
<circle cx="23.0887" cy="22.4197" r="22.2283" fill="#84658D"/>
<path d="M38.3706 9.92999C37.0402 10.8684 35.5672 11.5861 34.0083 12.0556C33.1716 11.0935 32.0596 10.4116 30.8227 10.1022C29.5859 9.79267 28.2838 9.87052 27.0926 10.3252C25.9014 10.7798 24.8786 11.5893 24.1625 12.6442C23.4464 13.6991 23.0715 14.9485 23.0886 16.2234V17.6127C20.6472 17.676 18.2279 17.1345 16.0464 16.0365C13.8649 14.9384 11.9888 13.3179 10.5852 11.3193C10.5852 11.3193 5.0281 23.8227 17.5315 29.3798C14.6704 31.3219 11.262 32.2958 7.80664 32.1583C20.3101 39.1047 35.5921 32.1583 35.5921 16.1817C35.5908 15.7947 35.5536 15.4087 35.4809 15.0286C36.8988 13.6303 37.8994 11.8648 38.3706 9.92999V9.92999Z" stroke="white" stroke-width="2.49805" stroke-linecap="round" stroke-linejoin="round"/>
</svg>
