<svg width="32" height="32" viewBox="0 0 32 32" fill="none" xmlns="http://www.w3.org/2000/svg">
<circle cx="16" cy="16" r="16" fill="#84658D"/>
<path d="M6.57227 12.8572H25.4294" stroke="white"/>
<path d="M6.57227 19.1428H25.4294" stroke="white"/>
<path d="M15.9994 26.2142C21.6406 26.2142 26.2137 21.6411 26.2137 15.9999C26.2137 10.3587 21.6406 5.78564 15.9994 5.78564C10.3582 5.78564 5.78516 10.3587 5.78516 15.9999C5.78516 21.6411 10.3582 26.2142 15.9994 26.2142Z" stroke="white"/>
<path fill-rule="evenodd" clip-rule="evenodd" d="M14.9186 25.4287H17.0831C17.0547 25.3966 17.0266 25.3642 16.9986 25.3319C18.8374 22.7637 19.9294 19.5099 19.9294 16.0001C19.9294 12.4903 18.8374 9.23649 16.9986 6.66838C17.0266 6.63593 17.0547 6.60365 17.0831 6.57153H14.9186C14.9469 6.60365 14.9751 6.63593 15.0031 6.66838C13.1643 9.23649 12.0723 12.4903 12.0723 16.0001C12.0723 19.5099 13.1643 22.7637 15.0031 25.3319C14.9751 25.3642 14.9469 25.3966 14.9186 25.4287ZM18.358 16.0001C18.358 12.973 17.4768 10.205 16.0008 7.98349C14.5249 10.205 13.6437 12.973 13.6437 16.0001C13.6437 19.0272 14.5249 21.7952 16.0008 24.0167C17.4768 21.7952 18.358 19.0272 18.358 16.0001Z" fill="white"/>
<path fill-rule="evenodd" clip-rule="evenodd" d="M27 16C27 22.0751 22.0751 27 16 27C9.92487 27 5 22.0751 5 16C5 9.92487 9.92487 5 16 5C22.0751 5 27 9.92487 27 16ZM17.0332 25.3726C20.3918 25.0065 23.2206 22.8766 24.5737 19.9286H19.4595C18.9733 21.9216 18.1261 23.7558 16.9977 25.3318C17.0095 25.3454 17.0213 25.359 17.0332 25.3726ZM14.9668 25.3726C14.9787 25.359 14.9905 25.3454 15.0023 25.3318C13.8739 23.7558 13.0267 21.9216 12.5405 19.9286H7.42635C8.77938 22.8766 11.6082 25.0065 14.9668 25.3726ZM14.159 19.9286C14.5635 21.4233 15.1928 22.8018 16 24.0166C16.8072 22.8018 17.4365 21.4233 17.841 19.9286H14.159ZM18.1752 18.3571H13.8248C13.7053 17.5934 13.6429 16.8059 13.6429 16C13.6429 15.1941 13.7053 14.4066 13.8248 13.6429H18.1752C18.2947 14.4066 18.3571 15.1941 18.3571 16C18.3571 16.8059 18.2947 17.5934 18.1752 18.3571ZM19.7622 18.3571H25.1316C25.3255 17.6038 25.4286 16.8139 25.4286 16C25.4286 15.1861 25.3255 14.3962 25.1316 13.6429H19.7622C19.8717 14.4119 19.9286 15.1993 19.9286 16C19.9286 16.8007 19.8717 17.5881 19.7622 18.3571ZM19.4595 12.0714H24.5737C23.2206 9.12343 20.3918 6.99345 17.0332 6.62739C17.0213 6.641 17.0095 6.65462 16.9977 6.66828C18.1261 8.24421 18.9733 10.0784 19.4595 12.0714ZM17.841 12.0714C17.4365 10.5766 16.8072 9.19829 16 7.98339C15.1928 9.19829 14.5635 10.5766 14.159 12.0714H17.841ZM12.5405 12.0714C13.0267 10.0784 13.8739 8.24421 15.0023 6.66828C14.9905 6.65462 14.9787 6.641 14.9668 6.62739C11.6082 6.99345 8.77938 9.12343 7.42635 12.0714H12.5405ZM12.2378 13.6429C12.1283 14.4119 12.0714 15.1993 12.0714 16C12.0714 16.8007 12.1283 17.5881 12.2378 18.3571H6.86848C6.67456 17.6038 6.57143 16.8139 6.57143 16C6.57143 15.1861 6.67456 14.3962 6.86848 13.6429H12.2378Z" fill="white"/>
</svg>
