<svg width="286" height="228" viewBox="0 0 286 228" fill="none" xmlns="http://www.w3.org/2000/svg">
	<path d="M143 287C161.779 287 180.374 283.288 197.724 276.077C215.073 268.865 230.837 258.295 244.116 244.97C257.395 231.645 267.928 215.825 275.115 198.415C282.301 181.005 286 162.345 286 143.5C286 124.655 282.301 105.995 275.115 88.5849C267.928 71.1747 257.395 55.3554 244.116 42.0302C230.838 28.705 215.073 18.1348 197.724 10.9233C180.374 3.71172 161.779 -1.08853e-05 143 -1.25308e-05L143 143.5L143 287Z" fill="#111111"/>
	<path d="M143 345C124.221 345 105.626 341.288 88.2763 334.077C70.9267 326.865 55.1625 316.295 41.8837 302.97C28.6049 289.645 18.0716 273.825 10.8852 256.415C3.69879 239.005 -1.14691e-05 220.345 -1.25158e-05 201.5C-1.35624e-05 182.655 3.69879 163.995 10.8852 146.585C18.0716 129.175 28.6049 113.355 41.8837 100.03C55.1625 86.705 70.9267 76.1348 88.2763 68.9233C105.626 61.7117 124.221 58 143 58L143 201.5L143 345Z" fill="#111111"/>
	<path d="M143 58C124.221 58 105.626 61.7117 88.2763 68.9233C70.9267 76.1348 55.1625 86.705 41.8837 100.03C28.605 113.355 18.0716 129.175 10.8852 146.585C3.6988 163.995 -5.9692e-07 182.655 0 201.5C5.9692e-07 220.345 3.69881 239.005 10.8852 256.415C18.0717 273.825 28.605 289.645 41.8837 302.97C55.1625 316.295 70.9267 326.865 88.2763 334.077C105.626 341.288 124.221 345 143 345V284.511C132.137 284.511 121.38 282.364 111.344 278.192C101.308 274.02 92.1884 267.906 84.507 260.198C76.8256 252.489 70.7324 243.338 66.5752 233.267C62.4181 223.196 60.2784 212.401 60.2784 201.5C60.2784 190.599 62.4181 179.804 66.5752 169.733C70.7324 159.662 76.8256 150.511 84.507 142.803C92.1884 135.094 101.308 128.98 111.344 124.808C121.38 120.636 132.137 118.489 143 118.489V58Z" fill="#111111"/>
</svg>